# xmcd
#
# Track frame offsets:
#	150
#	15023
#	27837
#	41235
#	54805
#	66552
#	79846
#	93249
#	103460
#	118618
#	133819
#	148472
#	162199
#	175769
#	187671
#
# Disc length: 2720 seconds
#
# Revision: 0
# Processed by: cddbd v1.5PL3 Copyright (c) Steve Scherf et al.
# Submitted via: dBpowerAMP V4.0
#
DISCID=c80a9e0f
DTITLE=Mahalia Jackson - Lady of gospel
DYEAR=2002
DGENRE=Gospel
TTITLE0=I'm going to tell God
TTITLE1=I want to rest
TTITLE2=What could I do
TTITLE3=Wait until my change comes
TTITLE4=Tired
TTITLE5=Dig a little deeper
TTITLE6=Oh, My Lord
TTITLE7=Amazing Grace
TTITLE8=Move On Up little Higher
TTITLE9=Since the fire started burning in my Soul
TTITLE10=I can put my trust in Jesus
TTITLE11=God shall wipe all tears away
TTITLE12=Even me
TTITLE13=Get away Jordan 
TTITLE14=There's not a friend like Jesus 
EXTD=
EXTT0=
EXTT1=
EXTT2=
EXTT3=
EXTT4=
EXTT5=
EXTT6=
EXTT7=
EXTT8=
EXTT9=
EXTT10=
EXTT11=
EXTT12=
EXTT13=
EXTT14=
PLAYORDER=
